<svg xmlns="http://www.w3.org/2000/svg" version="1.1" xmlns:xlink="http://www.w3.org/1999/xlink"
    xmlns:svgjs="http://svgjs.dev/svgjs" width="1000" height="237" viewBox="0 0 1000 237">
    <g transform="matrix(1,0,0,1,-0.6060591180127517,-0.22591855800963856)"><svg viewBox="0 0 396 94"
            data-background-color="#ffffff" preserveAspectRatio="xMidYMid meet" height="237" width="1000"
            xmlns="http://www.w3.org/2000/svg" xmlns:xlink="http://www.w3.org/1999/xlink">
            <g id="tight-bounds" transform="matrix(1,0,0,1,0.23999941073304853,0.08960482891521337)"><svg
                    viewBox="0 0 395.52 93.82079034216957" height="93.82079034216957" width="395.52">
                    <g><svg viewBox="0 0 592.9212637010812 140.64609013732144" height="93.82079034216957"
                            width="395.52">
                            <g>
                                <rect width="9.214010850460241" height="140.64609013732144" x="164.0668055981072" y="0"
                                    fill="#000000" opacity="1" stroke-width="0" stroke="transparent" fill-opacity="1"
                                    class="rect-o-0" data-fill-palette-color="primary" rx="1%" id="o-0"
                                    data-palette-color="#000000"></rect>
                            </g>
                            <g transform="matrix(1,0,0,1,197.40126370108118,0.3498658958639709)"><svg
                                    viewBox="0 0 395.52 139.9463583455935" height="139.9463583455935" width="395.52">
                                    <g id="textblocktransform"><svg viewBox="0 0 395.52 139.9463583455935"
                                            height="139.9463583455935" width="395.52" id="textblock">
                                            <g><svg viewBox="0 0 395.52 102.17238199780459" height="102.17238199780459"
                                                    width="395.52">
                                                    <g transform="matrix(1,0,0,1,0,0)"><svg width="395.52"
                                                            viewBox="-0.25 -35 136.63999938964844 35.29999923706055"
                                                            height="102.17238199780459" data-palette-color="#000000">
                                                            <path
                                                                d="M9.45 0.3Q6.45 0.3 3.9-1 1.35-2.3-0.25-4.7L-0.25-4.7 1.95-7.2Q4.85-2.9 9.5-2.9L9.5-2.9Q16-2.9 16-10.6L16-10.6 16-31.8 3.2-31.8 3.2-35 19.65-35 19.65-10.75Q19.65-5.25 17.07-2.48 14.5 0.3 9.45 0.3L9.45 0.3ZM56.15 0L51.95-9.35 32.45-9.35 28.25 0 24.4 0 40.4-35 44.05-35 60.05 0 56.15 0ZM33.8-12.35L50.6-12.35 42.2-31.15 33.8-12.35ZM99.15-35L102.2-35 102.2 0 98.65 0 98.65-28 84.9-4.45 83.15-4.45 69.4-27.85 69.4 0 65.84 0 65.84-35 68.9-35 84.09-9.05 99.15-35ZM120.39 0L120.39-31.8 108.09-31.8 108.09-35 136.39-35 136.39-31.8 124.09-31.8 124.09 0 120.39 0Z"
                                                                opacity="1" transform="matrix(1,0,0,1,0,0)"
                                                                fill="#000000" class="wordmark-text-0"
                                                                data-fill-palette-color="primary" id="text-0"></path>
                                                        </svg></g>
                                                </svg></g>
                                            <g transform="matrix(1,0,0,1,0,126.2928292503183)"><svg
                                                    viewBox="0 0 232.209792 13.65352909527519"
                                                    height="13.65352909527519" width="232.209792">
                                                    <g transform="matrix(1,0,0,1,0,0)"><svg width="232.209792"
                                                            viewBox="-1.9300000667572021 -40.5 908.8399658203125 53.44000244140625"
                                                            height="13.65352909527519" data-palette-color="#61777f">
                                                            <path
                                                                d="M1.07 12.94L-1.93 6.32Q-0.24 5.3 0.96 4.17 2.17 3.05 2.95 1.7 3.74 0.34 4.1-1.33 4.47-3 4.47-5.13L4.47-5.13 4.47-38.16 12.21-38.16 12.21-6.52Q12.21-3.98 11.99-1.89 11.77 0.2 11.27 1.94 10.77 3.69 9.92 5.15 9.08 6.62 7.85 7.93 6.62 9.25 4.94 10.47 3.27 11.69 1.07 12.94L1.07 12.94ZM21.19-13.75L21.19-28.83 28.39-28.83 28.39-14.77Q28.39-12.77 28.83-11.12 29.27-9.47 30.33-8.3 31.39-7.13 33.16-6.48 34.93-5.83 37.57-5.83L37.57-5.83Q38.82-5.83 40.1-6.1 41.38-6.37 42.55-6.85 43.72-7.32 44.74-7.98 45.75-8.64 46.48-9.42L46.48-9.42 46.48-28.83 53.71-28.83 53.71 0 46.48 0 46.48-2.47Q43.82-0.88 41.14-0.2 38.45 0.49 36.03 0.49L36.03 0.49Q32.08 0.49 29.26-0.46 26.44-1.42 24.64-3.23 22.85-5.05 22.02-7.7 21.19-10.35 21.19-13.75L21.19-13.75ZM60.91-3.37L64.03-8.84Q66.96-7.08 70.48-6.25 73.99-5.42 77.68-5.42L77.68-5.42Q80.17-5.42 81.83-5.76 83.49-6.1 84.49-6.64 85.49-7.18 85.91-7.86 86.32-8.54 86.32-9.25L86.32-9.25Q86.32-10.28 85.43-11.01 84.54-11.74 82.49-11.74L82.49-11.74Q81.54-11.74 80.44-11.62 79.34-11.5 78.13-11.36 76.92-11.23 75.62-11.11 74.31-10.99 72.97-10.99L72.97-10.99Q70.04-10.99 67.98-11.62 65.91-12.26 64.62-13.35 63.33-14.45 62.74-15.95 62.15-17.46 62.15-19.19L62.15-19.19Q62.15-21.39 63.18-23.24 64.2-25.1 66.11-26.45 68.01-27.81 70.71-28.56 73.41-29.32 76.73-29.32L76.73-29.32Q78.46-29.32 80.35-29.11 82.25-28.91 84.08-28.56 85.91-28.22 87.59-27.77 89.28-27.32 90.57-26.81L90.57-26.81 88.3-21.19Q85.54-22.22 82.8-22.81 80.05-23.41 77.14-23.41L77.14-23.41Q75.12-23.41 73.71-23.11 72.31-22.8 71.43-22.3 70.55-21.8 70.15-21.15 69.75-20.51 69.75-19.8L69.75-19.8Q69.75-19.29 69.95-18.87 70.16-18.46 70.64-18.15 71.11-17.85 71.88-17.69 72.65-17.53 73.77-17.53L73.77-17.53Q74.8-17.53 75.95-17.65 77.09-17.77 78.34-17.91 79.58-18.04 80.92-18.16 82.25-18.29 83.64-18.29L83.64-18.29Q86.23-18.29 88.17-17.68 90.11-17.07 91.38-15.97 92.65-14.87 93.28-13.38 93.92-11.89 93.92-10.13L93.92-10.13Q93.92-7.86 92.87-5.91 91.82-3.96 89.74-2.53 87.67-1.1 84.58-0.29 81.49 0.51 77.44 0.51L77.44 0.51Q74.95 0.51 72.63 0.21 70.31-0.1 68.21-0.62 66.11-1.15 64.27-1.86 62.42-2.56 60.91-3.37L60.91-3.37ZM104.75 0L104.75-23.39 97.8-23.39 97.8-28.81 104.75-28.81 104.75-37.77 111.98-37.77 111.98-28.81 118.94-28.81 118.94-23.39 111.98-23.39 111.98 0 104.75 0ZM140.59-9.08L140.59-9.08Q140.59-11.16 141.49-12.87 142.39-14.58 144.2-15.81 146.01-17.04 148.71-17.71 151.4-18.38 154.99-18.38L154.99-18.38Q157.65-18.38 160.6-17.99 163.54-17.6 166.66-16.8L166.66-16.8Q166.54-18.16 165.83-19.32 165.12-20.48 163.87-21.33 162.61-22.17 160.84-22.63 159.07-23.1 156.82-23.1L156.82-23.1Q155.6-23.1 154.14-22.95 152.67-22.8 151.11-22.51 149.55-22.22 148.02-21.78 146.5-21.34 145.18-20.73L145.18-20.73 142.98-26.66Q144.62-27.25 146.48-27.73 148.35-28.22 150.3-28.58 152.26-28.93 154.21-29.13 156.16-29.32 158-29.32L158-29.32Q166.08-29.32 170.01-25.2 173.94-21.07 173.94-12.55L173.94-12.55 173.94 0 166.71 0 166.71-2.71Q165.59-2.05 164.26-1.46 162.93-0.88 161.36-0.44 159.8 0 158.01 0.26 156.21 0.51 154.21 0.51L154.21 0.51Q150.84 0.51 148.29-0.22 145.74-0.95 144.03-2.25 142.32-3.54 141.45-5.29 140.59-7.03 140.59-9.08ZM148.21-9.33L148.21-9.33Q148.21-8.62 148.57-7.97 148.94-7.32 149.74-6.82 150.55-6.32 151.81-6.02 153.06-5.71 154.85-5.71L154.85-5.71Q156.75-5.71 158.53-6.05 160.31-6.4 161.85-6.96 163.39-7.52 164.64-8.25 165.88-8.98 166.71-9.77L166.71-9.77 166.71-11.04Q165.05-11.5 163.43-11.82 161.8-12.13 160.33-12.32 158.85-12.5 157.54-12.57 156.24-12.65 155.26-12.65L155.26-12.65Q153.23-12.65 151.89-12.38 150.55-12.11 149.72-11.66 148.89-11.21 148.55-10.6 148.21-9.99 148.21-9.33ZM183.48 0L183.48-28.81 190.71-28.81 190.71-26.37Q193.59-28 196.21-28.66 198.84-29.32 201.35-29.32L201.35-29.32Q204.65-29.32 207.46-28.36 210.26-27.39 212.31-25.49 214.36-23.58 215.52-20.74 216.68-17.9 216.68-14.16L216.68-14.16 216.68 0 209.48 0 209.48-12.99Q209.48-15.36 208.81-17.22 208.14-19.09 206.88-20.37 205.62-21.66 203.83-22.33 202.04-23 199.81-23L199.81-23Q198.64-23 197.41-22.75 196.18-22.51 194.99-22.06 193.81-21.61 192.71-20.94 191.61-20.26 190.71-19.41L190.71-19.41 190.71 0 183.48 0ZM223.81-14.4L223.81-14.4Q223.81-17.5 225.07-20.21 226.33-22.92 228.66-24.95 230.99-26.98 234.3-28.15 237.6-29.32 241.73-29.32L241.73-29.32Q245.86-29.32 249.16-28.15 252.47-26.98 254.8-24.95 257.14-22.92 258.39-20.21 259.65-17.5 259.65-14.4L259.65-14.4Q259.65-11.3 258.39-8.59 257.14-5.88 254.8-3.86 252.47-1.83 249.16-0.66 245.86 0.51 241.73 0.51L241.73 0.51Q237.6 0.51 234.3-0.66 230.99-1.83 228.66-3.86 226.33-5.88 225.07-8.59 223.81-11.3 223.81-14.4ZM231.4-14.4L231.4-14.4Q231.4-12.67 232.1-11.12 232.8-9.57 234.13-8.39 235.46-7.2 237.37-6.51 239.29-5.81 241.73-5.81L241.73-5.81Q244.17-5.81 246.09-6.51 248-7.2 249.34-8.39 250.67-9.57 251.36-11.12 252.06-12.67 252.06-14.4L252.06-14.4Q252.06-16.14 251.36-17.7 250.67-19.26 249.34-20.45 248-21.63 246.09-22.33 244.17-23.02 241.73-23.02L241.73-23.02Q239.29-23.02 237.37-22.33 235.46-21.63 234.13-20.45 232.8-19.26 232.1-17.7 231.4-16.14 231.4-14.4ZM271.29 0L271.29-23.39 264.34-23.39 264.34-28.81 271.29-28.81 271.29-37.77 278.52-37.77 278.52-28.81 285.48-28.81 285.48-23.39 278.52-23.39 278.52 0 271.29 0ZM291.9 0L291.9-40.48 299.12-40.48 299.12-26.61Q301.39-27.86 304.19-28.59 306.98-29.32 310.06-29.32L310.06-29.32Q313.62-29.32 316.47-28.27 319.31-27.22 321.29-25.26 323.27-23.29 324.33-20.48 325.39-17.68 325.39-14.16L325.39-14.16 325.39 0 318.19 0 318.19-13.87Q318.19-15.92 317.53-17.61 316.87-19.31 315.6-20.53 314.33-21.75 312.51-22.42 310.7-23.1 308.4-23.1L308.4-23.1Q305.64-23.1 303.27-22.22 300.91-21.34 299.12-20L299.12-20 299.12 0 291.9 0ZM332.1-14.5L332.1-14.5Q332.1-17.43 333.3-20.1 334.5-22.78 336.74-24.83 338.99-26.88 342.25-28.1 345.51-29.32 349.66-29.32L349.66-29.32Q353.78-29.32 357.09-28.09 360.4-26.86 362.71-24.71 365.01-22.56 366.25-19.65 367.48-16.75 367.48-13.43L367.48-13.43Q367.48-13.01 367.47-12.54 367.46-12.06 367.41-11.67L367.41-11.67 340.16-11.67Q340.62-10.38 341.66-9.3 342.7-8.23 344.26-7.45 345.82-6.67 347.88-6.24 349.93-5.81 352.42-5.81L352.42-5.81Q354.91-5.81 357.37-6.34 359.84-6.86 362.08-7.67L362.08-7.67 364.53-2.15Q363.11-1.49 361.66-0.99 360.2-0.49 358.63-0.16 357.06 0.17 355.33 0.34 353.61 0.51 351.71 0.51L351.71 0.51Q346.85 0.51 343.19-0.66 339.53-1.83 337.06-3.86 334.59-5.88 333.35-8.62 332.1-11.35 332.1-14.5ZM340.16-17.31L359.81-17.31Q359.42-18.51 358.61-19.54 357.79-20.58 356.57-21.35 355.35-22.12 353.73-22.56 352.12-23 350.19-23L350.19-23Q348.14-23 346.46-22.53 344.77-22.07 343.51-21.29 342.24-20.51 341.39-19.48 340.55-18.46 340.16-17.31L340.16-17.31ZM375.24 0L375.24-28.81 382.47-28.81 382.47-24.66Q384.86-26.44 387.52-27.73 390.18-29.03 392.82-29.71L392.82-29.71 394.94-23.1Q390.77-22.68 387.61-21.23 384.45-19.78 382.47-17.14L382.47-17.14 382.47 0 375.24 0ZM417.11 0L417.11-28.81 424.33-28.81 424.33-26.37Q427.04-28.03 429.62-28.67 432.19-29.32 434.66-29.32L434.66-29.32Q438.1-29.32 440.98-28.22 443.86-27.12 445.91-24.9L445.91-24.9Q447.5-26.12 449.04-26.97 450.58-27.81 452.12-28.33 453.65-28.86 455.24-29.09 456.83-29.32 458.51-29.32L458.51-29.32Q462.05-29.32 464.93-28.36 467.81-27.39 469.85-25.49 471.89-23.58 473-20.74 474.11-17.9 474.11-14.16L474.11-14.16 474.11 0 466.91 0 466.91-12.99Q466.91-15.36 466.24-17.22 465.57-19.09 464.36-20.37 463.15-21.66 461.48-22.33 459.81-23 457.8-23L457.8-23Q456.71-23 455.56-22.79 454.41-22.58 453.32-22.14 452.24-21.7 451.29-21.03 450.33-20.36 449.63-19.46L449.63-19.46 449.63 0 442.42 0 442.42-12.99Q442.42-15.36 441.75-17.22 441.08-19.09 439.87-20.37 438.66-21.66 436.97-22.33 435.27-23 433.24-23L433.24-23Q432-23 430.74-22.74 429.48-22.49 428.32-22.02 427.16-21.56 426.15-20.9 425.14-20.24 424.33-19.41L424.33-19.41 424.33 0 417.11 0ZM481.46-14.4L481.46-14.4Q481.46-17.5 482.72-20.21 483.97-22.92 486.31-24.95 488.64-26.98 491.94-28.15 495.25-29.32 499.38-29.32L499.38-29.32Q503.51-29.32 506.81-28.15 510.12-26.98 512.45-24.95 514.78-22.92 516.04-20.21 517.3-17.5 517.3-14.4L517.3-14.4Q517.3-11.3 516.04-8.59 514.78-5.88 512.45-3.86 510.12-1.83 506.81-0.66 503.51 0.51 499.38 0.51L499.38 0.51Q495.25 0.51 491.94-0.66 488.64-1.83 486.31-3.86 483.97-5.88 482.72-8.59 481.46-11.3 481.46-14.4ZM489.05-14.4L489.05-14.4Q489.05-12.67 489.75-11.12 490.44-9.57 491.77-8.39 493.1-7.2 495.02-6.51 496.94-5.81 499.38-5.81L499.38-5.81Q501.82-5.81 503.74-6.51 505.65-7.2 506.98-8.39 508.31-9.57 509.01-11.12 509.71-12.67 509.71-14.4L509.71-14.4Q509.71-16.14 509.01-17.7 508.31-19.26 506.98-20.45 505.65-21.63 503.74-22.33 501.82-23.02 499.38-23.02L499.38-23.02Q496.94-23.02 495.02-22.33 493.1-21.63 491.77-20.45 490.44-19.26 489.75-17.7 489.05-16.14 489.05-14.4ZM524.6 0L524.6-28.81 531.82-28.81 531.82-26.37Q534.7-28 537.33-28.66 539.95-29.32 542.47-29.32L542.47-29.32Q545.76-29.32 548.57-28.36 551.38-27.39 553.43-25.49 555.48-23.58 556.64-20.74 557.8-17.9 557.8-14.16L557.8-14.16 557.8 0 550.6 0 550.6-12.99Q550.6-15.36 549.93-17.22 549.25-19.09 548-20.37 546.74-21.66 544.95-22.33 543.15-23 540.93-23L540.93-23Q539.76-23 538.52-22.75 537.29-22.51 536.11-22.06 534.92-21.61 533.82-20.94 532.73-20.26 531.82-19.41L531.82-19.41 531.82 0 524.6 0ZM570.47-32.74L570.47-32.74Q569.39-32.74 568.53-33.04 567.66-33.35 567.05-33.87 566.44-34.4 566.11-35.1 565.78-35.79 565.78-36.57L565.78-36.57Q565.78-37.38 566.11-38.07 566.44-38.77 567.05-39.28 567.66-39.79 568.53-40.1 569.39-40.41 570.47-40.41L570.47-40.41Q571.57-40.41 572.43-40.1 573.3-39.79 573.91-39.28 574.52-38.77 574.85-38.07 575.18-37.38 575.18-36.57L575.18-36.57Q575.18-35.79 574.85-35.1 574.52-34.4 573.91-33.87 573.3-33.35 572.43-33.04 571.57-32.74 570.47-32.74ZM566.85 0L566.85-28.81 574.08-28.81 574.08 0 566.85 0ZM587.68 0L587.68-23.39 580.72-23.39 580.72-28.81 587.68-28.81 587.68-37.77 594.9-37.77 594.9-28.81 601.86-28.81 601.86-23.39 594.9-23.39 594.9 0 587.68 0ZM606.55-14.4L606.55-14.4Q606.55-17.5 607.8-20.21 609.06-22.92 611.39-24.95 613.72-26.98 617.03-28.15 620.34-29.32 624.47-29.32L624.47-29.32Q628.59-29.32 631.9-28.15 635.21-26.98 637.54-24.95 639.87-22.92 641.13-20.21 642.39-17.5 642.39-14.4L642.39-14.4Q642.39-11.3 641.13-8.59 639.87-5.88 637.54-3.86 635.21-1.83 631.9-0.66 628.59 0.51 624.47 0.51L624.47 0.51Q620.34 0.51 617.03-0.66 613.72-1.83 611.39-3.86 609.06-5.88 607.8-8.59 606.55-11.3 606.55-14.4ZM614.14-14.4L614.14-14.4Q614.14-12.67 614.84-11.12 615.53-9.57 616.86-8.39 618.19-7.2 620.11-6.51 622.03-5.81 624.47-5.81L624.47-5.81Q626.91-5.81 628.82-6.51 630.74-7.2 632.07-8.39 633.4-9.57 634.1-11.12 634.79-12.67 634.79-14.4L634.79-14.4Q634.79-16.14 634.1-17.7 633.4-19.26 632.07-20.45 630.74-21.63 628.82-22.33 626.91-23.02 624.47-23.02L624.47-23.02Q622.03-23.02 620.11-22.33 618.19-21.63 616.86-20.45 615.53-19.26 614.84-17.7 614.14-16.14 614.14-14.4ZM649.68 0L649.68-28.81 656.91-28.81 656.91-24.66Q659.3-26.44 661.96-27.73 664.63-29.03 667.26-29.71L667.26-29.71 669.39-23.1Q665.21-22.68 662.05-21.23 658.89-19.78 656.91-17.14L656.91-17.14 656.91 0 649.68 0ZM678.56-32.74L678.56-32.74Q677.49-32.74 676.62-33.04 675.76-33.35 675.15-33.87 674.53-34.4 674.21-35.1 673.88-35.79 673.88-36.57L673.88-36.57Q673.88-37.38 674.21-38.07 674.53-38.77 675.15-39.28 675.76-39.79 676.62-40.1 677.49-40.41 678.56-40.41L678.56-40.41Q679.66-40.41 680.53-40.1 681.4-39.79 682.01-39.28 682.62-38.77 682.95-38.07 683.28-37.38 683.28-36.57L683.28-36.57Q683.28-35.79 682.95-35.1 682.62-34.4 682.01-33.87 681.4-33.35 680.53-33.04 679.66-32.74 678.56-32.74ZM674.95 0L674.95-28.81 682.18-28.81 682.18 0 674.95 0ZM691.43 0L691.43-28.81 698.65-28.81 698.65-26.37Q701.53-28 704.16-28.66 706.78-29.32 709.3-29.32L709.3-29.32Q712.59-29.32 715.4-28.36 718.21-27.39 720.26-25.49 722.31-23.58 723.47-20.74 724.63-17.9 724.63-14.16L724.63-14.16 724.63 0 717.43 0 717.43-12.99Q717.43-15.36 716.76-17.22 716.09-19.09 714.83-20.37 713.57-21.66 711.78-22.33 709.98-23 707.76-23L707.76-23Q706.59-23 705.36-22.75 704.12-22.51 702.94-22.06 701.75-21.61 700.66-20.94 699.56-20.26 698.65-19.41L698.65-19.41 698.65 0 691.43 0ZM735.32 10.99L738.01 4.88Q739.37 5.37 740.79 5.7 742.21 6.03 743.54 6.24 744.87 6.45 746.09 6.53 747.31 6.62 748.26 6.62L748.26 6.62Q751.14 6.62 753.28 5.92 755.41 5.22 756.84 4.05 758.27 2.88 758.98 1.33 759.69-0.22 759.69-1.95L759.69-1.95 759.69-3.2Q758.76-2.56 757.51-1.98 756.27-1.39 754.78-0.95 753.29-0.51 751.62-0.24 749.94 0.02 748.16 0.02L748.16 0.02Q744.62 0.02 741.62-1.04 738.62-2.1 736.42-4.02 734.22-5.93 732.99-8.62 731.76-11.3 731.76-14.58L731.76-14.58Q731.76-17.92 733.05-20.64 734.34-23.36 736.63-25.29 738.91-27.22 742.03-28.27 745.16-29.32 748.82-29.32L748.82-29.32Q750.38-29.32 751.92-29.13 753.46-28.93 754.86-28.59 756.27-28.25 757.5-27.77 758.73-27.29 759.69-26.73L759.69-26.73 759.69-28.81 766.91-28.81 766.91-3.3Q766.91 0.63 765.72 3.66 764.52 6.69 762.21 8.75 759.91 10.82 756.49 11.88 753.07 12.94 748.65 12.94L748.65 12.94Q747.06 12.94 745.36 12.81 743.65 12.67 741.92 12.41 740.2 12.16 738.53 11.8 736.86 11.45 735.32 10.99L735.32 10.99ZM739.35-14.65L739.35-14.65Q739.35-12.92 740.05-11.39 740.74-9.86 742.03-8.73 743.33-7.59 745.16-6.95 746.99-6.3 749.29-6.3L749.29-6.3Q750.78-6.3 752.25-6.58 753.73-6.86 755.08-7.37 756.44-7.89 757.62-8.62 758.81-9.35 759.69-10.25L759.69-10.25 759.69-19.75Q758.59-20.63 757.37-21.24 756.15-21.85 754.88-22.24 753.61-22.63 752.31-22.81 751.02-23 749.8-23L749.8-23Q747.31-23 745.37-22.34 743.43-21.68 742.1-20.54 740.77-19.41 740.06-17.9 739.35-16.38 739.35-14.65ZM796.08 0L796.08-23.39 789.12-23.39 789.12-28.81 796.08-28.81 796.08-37.77 803.31-37.77 803.31-28.81 810.27-28.81 810.27-23.39 803.31-23.39 803.31 0 796.08 0ZM814.95-14.4L814.95-14.4Q814.95-17.5 816.21-20.21 817.47-22.92 819.8-24.95 822.13-26.98 825.44-28.15 828.75-29.32 832.87-29.32L832.87-29.32Q837-29.32 840.31-28.15 843.61-26.98 845.95-24.95 848.28-22.92 849.53-20.21 850.79-17.5 850.79-14.4L850.79-14.4Q850.79-11.3 849.53-8.59 848.28-5.88 845.95-3.86 843.61-1.83 840.31-0.66 837 0.51 832.87 0.51L832.87 0.51Q828.75 0.51 825.44-0.66 822.13-1.83 819.8-3.86 817.47-5.88 816.21-8.59 814.95-11.3 814.95-14.4ZM822.54-14.4L822.54-14.4Q822.54-12.67 823.24-11.12 823.94-9.57 825.27-8.39 826.6-7.2 828.51-6.51 830.43-5.81 832.87-5.81L832.87-5.81Q835.31-5.81 837.23-6.51 839.15-7.2 840.48-8.39 841.81-9.57 842.5-11.12 843.2-12.67 843.2-14.4L843.2-14.4Q843.2-16.14 842.5-17.7 841.81-19.26 840.48-20.45 839.15-21.63 837.23-22.33 835.31-23.02 832.87-23.02L832.87-23.02Q830.43-23.02 828.51-22.33 826.6-21.63 825.27-20.45 823.94-19.26 823.24-17.7 822.54-16.14 822.54-14.4ZM856.36-14.4L856.36-14.4Q856.36-17.5 857.61-20.21 858.87-22.92 861.2-24.95 863.53-26.98 866.84-28.15 870.15-29.32 874.28-29.32L874.28-29.32Q878.4-29.32 881.71-28.15 885.02-26.98 887.35-24.95 889.68-22.92 890.94-20.21 892.2-17.5 892.2-14.4L892.2-14.4Q892.2-11.3 890.94-8.59 889.68-5.88 887.35-3.86 885.02-1.83 881.71-0.66 878.4 0.51 874.28 0.51L874.28 0.51Q870.15 0.51 866.84-0.66 863.53-1.83 861.2-3.86 858.87-5.88 857.61-8.59 856.36-11.3 856.36-14.4ZM863.95-14.4L863.95-14.4Q863.95-12.67 864.64-11.12 865.34-9.57 866.67-8.39 868-7.2 869.92-6.51 871.83-5.81 874.28-5.81L874.28-5.81Q876.72-5.81 878.63-6.51 880.55-7.2 881.88-8.39 883.21-9.57 883.91-11.12 884.6-12.67 884.6-14.4L884.6-14.4Q884.6-16.14 883.91-17.7 883.21-19.26 881.88-20.45 880.55-21.63 878.63-22.33 876.72-23.02 874.28-23.02L874.28-23.02Q871.83-23.02 869.92-22.33 868-21.63 866.67-20.45 865.34-19.26 864.64-17.7 863.95-16.14 863.95-14.4ZM899.69 0L899.69-40.5 906.91-40.5 906.91 0 899.69 0Z"
                                                                opacity="1" transform="matrix(1,0,0,1,0,0)"
                                                                fill="#000000" class="slogan-text-1"
                                                                data-fill-palette-color="secondary" id="text-1"></path>
                                                        </svg></g>
                                                </svg></g>
                                        </svg></g>
                                </svg></g>
                            <g transform="matrix(1,0,0,1,0,0.3498658958639709)"><svg
                                    viewBox="0 0 139.9463583455935 139.9463583455935" height="139.9463583455935"
                                    width="139.9463583455935">
                                    <g><svg xmlns="http://www.w3.org/2000/svg"
                                            xmlns:xlink="http://www.w3.org/1999/xlink" version="1.1" x="0" y="0"
                                            viewBox="0 0 100 100" enable-background="new 0 0 100 100"
                                            xml:space="preserve" height="139.9463583455935" width="139.9463583455935"
                                            class="icon-icon-0" data-fill-palette-color="accent" id="icon-0">
                                            <path
                                                d="M0 0v100h100V0H0zM93.164 39.662H66.55V25.469h2.396 24.219V39.662zM64.499 58.308H35.501V41.706h28.998V58.308zM35.501 39.662V25.469h2.389 24.219 2.39v14.193H35.501zM31.055 25.469h2.396v14.193H6.836V25.469H31.055zM33.451 41.706v16.602H6.836V41.706H33.451zM6.836 60.352h26.615v16.575H6.836V60.352zM35.501 60.352h28.998v16.575H35.501V60.352zM66.55 60.352h26.614v16.575H66.55V60.352zM66.55 58.308V41.706h26.614v16.602H66.55zM6.836 93.164v-14.18h26.615v14.18H6.836zM35.501 93.164v-14.18h28.998v14.18H35.501zM66.55 78.984h26.614v14.18H66.55V78.984z"
                                                fill="#000000" data-fill-palette-color="accent"></path>
                                        </svg></g>
                                </svg></g>
                        </svg></g>
                    <defs></defs>
                </svg>
                <rect width="395.52" height="93.82079034216957" fill="none" stroke="none" visibility="hidden"></rect>
            </g>
        </svg></g>
</svg>